<svg xmlns="http://www.w3.org/2000/svg" width="34.776" height="38.145" viewBox="0 0 34.776 38.145">
  <g id="contract-svgrepo-com" transform="translate(-22.612)">
    <path id="Path_14582" data-name="Path 14582" d="M39.157,15.551V6.865l-9.99,9.99h8.685C38.791,16.855,39.157,16.49,39.157,15.551Z" transform="translate(-6.067 -6.354)" fill="#fff"/>
    <path id="Path_14583" data-name="Path 14583" d="M420.089,147.856l-2.305-2.305a1.028,1.028,0,0,0-1.453,0l-1.495,1.495L418.6,150.8l1.494-1.5A1.027,1.027,0,0,0,420.089,147.856Z" transform="translate(-363.002 -134.429)" fill="#fff"/>
    <path id="Path_14584" data-name="Path 14584" d="M35.277,34.069a.933.933,0,0,1-1.133-1.133l2.162-8.511L48.111,12.617l.946-.946,2.093-2.093.317-.316a3.671,3.671,0,0,1,.357-.294V1.69A1.693,1.693,0,0,0,50.133,0H35.021V10.36a2.076,2.076,0,0,1-2.072,2.074H22.612V36.454A1.693,1.693,0,0,0,24.3,38.145h25.83a1.693,1.693,0,0,0,1.691-1.691V23.865L43.787,31.9Z" fill="#fff"/>
    <path id="Path_14585" data-name="Path 14585" d="M222.35,190.992l-1.281,5.04,5.04-1.282,12.472-12.473-3.758-3.759Zm2.357.854-.854-.854,10.867-10.867.855.855Z" transform="translate(-183.671 -165.218)" fill="#fff"/>
  </g>
</svg>
