<svg xmlns="http://www.w3.org/2000/svg" width="35.832" height="37.417" viewBox="0 0 35.832 37.417">
  <g id="market-store-svgrepo-com" transform="translate(-10.265)">
    <path id="Path_14579" data-name="Path 14579" d="M44.305,204.739h-.759v-18.7h0a4.463,4.463,0,0,1-2.551-.817,4.437,4.437,0,0,1-2.569.817,4.376,4.376,0,0,1-.569-.046V199.9a1.438,1.438,0,0,1-1.438,1.438H31.251V197.4l1.822,3.04a1.149,1.149,0,1,0,1.971-1.181l-3.662-6.112a1.136,1.136,0,0,0-1.05-.543c-.028,0-4.243,0-4.268,0a1.139,1.139,0,0,0-1.066.545l-3.662,6.112a1.149,1.149,0,1,0,1.971,1.181l1.833-3.06v3.959H19.961a1.438,1.438,0,0,1-1.438-1.438V185.992a4.375,4.375,0,0,1-.569.046,4.516,4.516,0,0,1-.877-.087,4.438,4.438,0,0,1-1.693-.73,4.461,4.461,0,0,1-2.551.817h0v18.7h-.759a1.8,1.8,0,0,0,0,3.6H44.305a1.8,1.8,0,1,0,0-3.6Z" transform="translate(-0.009 -170.921)"/>
    <path id="Path_14580" data-name="Path 14580" d="M213.708,197.226a2.763,2.763,0,1,0,2.394,2.739A2.584,2.584,0,0,0,213.708,197.226Z" transform="translate(-185.528 -182)"/>
    <path id="Path_14581" data-name="Path 14581" d="M12.092,13.09a2.559,2.559,0,0,0,3.185-1.72l.135-.45a2.552,2.552,0,0,0,5.042.217l.062-.313a2.555,2.555,0,0,0,2.292,2.36c.086.008.172.012.257.012a2.559,2.559,0,0,0,2.543-2.306l.019-.19a2.554,2.554,0,0,0,5.106,0l.019.19A2.56,2.56,0,0,0,33.3,13.2c.085,0,.171,0,.257-.012a2.554,2.554,0,0,0,2.292-2.36l.062.313a2.552,2.552,0,0,0,5.042-.217l.135.45A2.56,2.56,0,0,0,43.535,13.2a2.587,2.587,0,0,0,.734-.107,2.56,2.56,0,0,0,1.72-3.185l-2.31-7.731A3.045,3.045,0,0,0,40.761,0H15.6a3.045,3.045,0,0,0-2.918,2.174l-2.31,7.731A2.56,2.56,0,0,0,12.092,13.09Z" transform="translate(0)"/>
  </g>
</svg>
